<svg width="99" height="100" viewBox="0 0 99 100" fill="none" xmlns="http://www.w3.org/2000/svg">
<path d="M21 13H79V87H21V13Z" fill="white"/>
<path fill-rule="evenodd" clip-rule="evenodd" d="M7.24913 7.32235C-4.76837e-07 14.6446 0 26.4298 0 50C0 73.57 -4.76837e-07 85.3555 7.24913 92.6775C14.4982 100 26.1655 100 49.5 100C72.8343 100 84.5019 100 91.7507 92.6775C99 85.3555 99 73.57 99 50C99 26.4298 99 14.6446 91.7507 7.32235C84.5019 -4.76837e-07 72.8343 0 49.5 0C26.1655 0 14.4982 -4.76837e-07 7.24913 7.32235ZM39.3623 21.25C37.2344 21.2496 35.2452 21.2493 33.62 21.4946C31.784 21.7716 29.898 22.4265 28.3903 24.1185C26.9331 25.7541 26.4186 27.7031 26.1956 29.5647C25.9872 31.3048 25.9873 33.4619 25.9875 35.8977V38.75C25.9875 40.821 27.6497 42.5 29.7 42.5C31.7503 42.5 33.4125 40.821 33.4125 38.75V36.1111C33.4125 33.3966 33.4189 31.7006 33.5668 30.4657C33.6362 29.8863 33.723 29.5524 33.7932 29.361C33.8523 29.1996 33.8946 29.1523 33.9086 29.1366L33.9126 29.1318C33.9194 29.1236 33.9243 29.1177 33.969 29.097C34.0512 29.059 34.2623 28.9809 34.717 28.9123C35.7274 28.7598 37.1503 28.75 39.6 28.75H45.7875V71.25H37.125C35.0747 71.25 33.4125 72.929 33.4125 75C33.4125 77.071 35.0747 78.75 37.125 78.75H64.35C66.4003 78.75 68.0625 77.071 68.0625 75C68.0625 72.929 66.4003 71.25 64.35 71.25H53.2125V28.75H59.4C61.8498 28.75 63.2729 28.7598 64.2832 28.9123C64.7376 28.9809 64.949 29.059 65.0311 29.097C65.0757 29.1177 65.0806 29.1236 65.0876 29.1318C65.1019 29.1476 65.1474 29.1996 65.2068 29.361C65.2771 29.5524 65.3638 29.8863 65.4331 30.4657C65.5811 31.7006 65.5875 33.3966 65.5875 36.1111V38.75C65.5875 40.821 67.2497 42.5 69.3 42.5C71.3503 42.5 73.0125 40.821 73.0125 38.75V35.8977C73.0125 33.4619 73.013 31.3048 72.8046 29.5647C72.5814 27.7031 72.0671 25.7541 70.6098 24.1185C69.102 22.4265 67.2161 21.7716 65.3801 21.4946C63.755 21.2493 61.7656 21.2496 59.6376 21.25H39.3623Z" fill="#262F50"/>
</svg>
